SplineFontDB: 3.2
FontName: classicneil
FullName: classicneil
FamilyName: classicneil
Weight: Regular
Copyright: Copyright (c) 2024, Neil Allen
UComments: "2024-3-2: Created with FontForge (http://fontforge.org)"
Version: 001.000
ItalicAngle: 0
UnderlinePosition: -100
UnderlineWidth: 50
Ascent: 800
Descent: 200
InvalidEm: 0
LayerCount: 2
Layer: 0 0 "Back" 1
Layer: 1 0 "Fore" 0
XUID: [1021 508 -1221354699 86108]
FSType: 0
OS2Version: 0
OS2_WeightWidthSlopeOnly: 0
OS2_UseTypoMetrics: 1
CreationTime: 1709391316
ModificationTime: 1709402353
PfmFamily: 17
TTFWeight: 400
TTFWidth: 5
LineGap: 90
VLineGap: 0
OS2TypoAscent: 0
OS2TypoAOffset: 1
OS2TypoDescent: 0
OS2TypoDOffset: 1
OS2TypoLinegap: 90
OS2WinAscent: 0
OS2WinAOffset: 1
OS2WinDescent: 0
OS2WinDOffset: 1
HheadAscent: 0
HheadAOffset: 1
HheadDescent: 0
HheadDOffset: 1
OS2Vendor: 'PfEd'
MarkAttachClasses: 1
DEI: 91125
Encoding: ISO8859-1
UnicodeInterp: none
NameList: AGL For New Fonts
DisplaySize: -48
AntiAlias: 1
FitToEm: 0
WinInfo: 0 28 6
BeginPrivate: 0
EndPrivate
Grid
-76 552 m 0
 213.333333333 552 502.666666667 552 792 552 c 0
 959.865285408 560.775406179 1125.68232809 541.136534867 1292 524 c 0
 1285.1044975 522.381730675 1277.98756951 491.941280783 1272 504 c 1024
EndSplineSet
TeXData: 1 0 0 346030 173015 115343 0 1048576 115343 783286 444596 497025 792723 393216 433062 380633 303038 157286 324010 404750 52429 2506097 1059062 262144
BeginChars: 256 27

StartChar: a
Encoding: 97 97 0
Width: 509
Flags: HW
LayerCount: 2
Fore
SplineSet
226 513 m 0
 318.169921875 580.123046875 429.375 537.044921875 469.447265625 417.826171875 c 0
 488.481445312 360.721679688 483.471679688 255.53125 457.424804688 191.41015625 c 0
 443.400390625 155.344726562 443.400390625 151.338867188 469.447265625 104.25390625 c 0
 491.489257812 63.177734375 494.495117188 51.15625 485.4765625 33.123046875 c 0
 472.453125 10.08203125 427.370117188 4.0703125 394.309570312 22.1025390625 c 0
 380.284179688 29.1171875 369.263671875 25.107421875 343.215820312 1.0634765625 c 0
 270.081054688 -64.0546875 172.904296875 -96.1142578125 76.728515625 -88.0986328125 c 0
 -6.421875 -81.0859375 -21.4501953125 -65.056640625 -20.4501953125 10.08203125 c 0
 -19.4482421875 56.1650390625 -12.435546875 79.2060546875 16.619140625 130.30078125 c 0
 66.708984375 216.45703125 136.838867188 296.60546875 180.919921875 317.643554688 c 0
 226 339.682617188 274.088867188 332.671875 326.185546875 296.60546875 c 0
 347.224609375 281.578125 368.262695312 272.560546875 372.268554688 276.568359375 c 0
 383.2890625 287.586914062 377.279296875 397.790039062 365.255859375 421.8359375 c 0
 359.245117188 432.854492188 345.220703125 446.877929688 334.200195312 452.891601562 c 0
 308.151367188 466.91796875 264.0703125 442.873046875 240.028320312 401.797851562 c 0
 218.987304688 366.732421875 193.942382812 351.704101562 165.892578125 359.719726562 c 0
 112.793945312 373.745117188 143.8515625 453.891601562 226 513 c 0
278.096679688 219.463867188 m 0
 264.0703125 237.49609375 247.041992188 252.524414062 240.028320312 252.524414062 c 0
 184.926757812 252.524414062 34.6533203125 18.0947265625 67.7109375 -14.96484375 c 0
 91.755859375 -39.009765625 215.984375 1.0634765625 267.076171875 50.154296875 c 0
 330.192382812 110.263671875 333.197265625 148.33203125 278.096679688 219.463867188 c 0
EndSplineSet
EndChar

StartChar: b
Encoding: 98 98 1
Width: 508
Flags: HW
LayerCount: 2
Fore
SplineSet
15.1240234375 789.44921875 m 0
 38.7197265625 804.465820312 76.259765625 801.248046875 105.219726562 781.94140625 c 0
 130.9609375 764.78125 132.034179688 760.489257812 132.034179688 641.43359375 c 0
 132.034179688 518.086914062 132.034179688 518.086914062 156.703125 525.594726562 c 0
 275.759765625 562.0625 327.244140625 557.7734375 386.235351562 506.288085938 c 0
 439.864257812 459.095703125 485.984375 353.982421875 493.493164062 261.741210938 c 0
 508.508789062 89.056640625 407.686523438 -6.4033203125 227.493164062 8.61328125 c 0
 95.56640625 19.3388671875 29.06640625 71.8955078125 19.4130859375 170.573242188 c 0
 16.1953125 205.966796875 10.83203125 238.145507812 8.6875 242.435546875 c 0
 5.470703125 246.725585938 10.83203125 279.974609375 20.4853515625 317.514648438 c 0
 34.4296875 371.14453125 36.57421875 412.974609375 31.2119140625 519.16015625 c 0
 26.921875 594.239257812 18.3408203125 682.19140625 11.9052734375 716.513671875 c 0
 2.251953125 767.998046875 3.32421875 781.94140625 15.1240234375 789.44921875 c 0
322.952148438 441.93359375 m 0
 290.775390625 476.2578125 251.08984375 473.040039062 202.82421875 432.28125 c 0
 158.848632812 393.66796875 140.614257812 338.966796875 150.267578125 278.90234375 c 0
 153.485351562 257.451171875 149.196289062 231.708984375 137.397460938 210.2578125 c 0
 99.857421875 137.322265625 145.978515625 80.4755859375 241.4375 80.4755859375 c 0
 366.928710938 80.4755859375 422.702148438 200.604492188 368.000976562 356.12890625 c 0
 356.203125 389.377929688 335.82421875 427.990234375 322.952148438 441.93359375 c 0
EndSplineSet
EndChar

StartChar: c
Encoding: 99 99 2
Width: 538
Flags: HW
LayerCount: 2
Fore
SplineSet
164.896484375 539.615234375 m 0
 199.833007812 554.900390625 301.373046875 542.890625 325.393554688 521.053710938 c 0
 337.403320312 510.13671875 346.138671875 491.575195312 343.955078125 479.564453125 c 0
 340.6796875 459.912109375 333.036132812 456.637695312 278.4453125 456.637695312 c 0
 210.751953125 456.637695312 202.016601562 450.0859375 160.529296875 373.65625 c 0
 110.303710938 278.669921875 126.681640625 143.284179688 196.557617188 84.3232421875 c 0
 234.7734375 51.568359375 270.801757812 52.66015625 409.463867188 93.05859375 c 0
 480.43359375 113.802734375 491.350585938 114.89453125 505.54296875 99.609375 c 0
 540.483398438 64.6728515625 500.0859375 28.6416015625 385.443359375 -6.2978515625 c 0
 304.649414062 -31.4091796875 212.934570312 -35.7763671875 163.803710938 -17.2158203125 c 0
 97.203125 7.8955078125 31.693359375 102.885742188 13.1328125 202.241210938 c 0
 5.490234375 242.638671875 30.6005859375 368.198242188 56.8046875 418.421875 c 0
 79.734375 462.094726562 137.599609375 527.603515625 164.896484375 539.615234375 c 0
EndSplineSet
EndChar

StartChar: d
Encoding: 100 100 3
Width: 556
Flags: HW
LayerCount: 2
Fore
SplineSet
304.854492188 786.98046875 m 0
 314.39453125 797.580078125 334.53125 804.999023438 350.428710938 804.999023438 c 0
 405.54296875 803.940429688 411.90234375 789.099609375 420.3828125 652.374023438 c 0
 423.561523438 582.421875 437.340820312 467.952148438 449 398 c 0
 461.71875 326.986328125 469.13671875 251.733398438 465.958007812 229.4765625 c 0
 458.538085938 178.6015625 474.4375 128.78515625 507.291992188 96.9892578125 c 0
 522.131835938 83.2109375 529.551757812 66.2529296875 525.3125 56.71484375 c 0
 515.772460938 32.3349609375 473.377929688 19.6171875 441.58203125 31.27734375 c 0
 406.604492188 45.0546875 409.784179688 46.1142578125 376.92578125 11.1376953125 c 0
 306.97265625 -60.9345703125 211.583007812 -76.8330078125 127.8515625 -31.2587890625 c 0
 70.6162109375 0.5390625 18.681640625 75.7919921875 10.203125 141.504882812 c 0
 -0.396484375 213.577148438 47.298828125 305.788085938 116.193359375 349.245117188 c 0
 169.186523438 383.162109375 247.6171875 392.701171875 291.075195312 369.381835938 c 0
 302.734375 363.0234375 314.39453125 360.904296875 317.573242188 364.083984375 c 0
 331.3515625 376.80078125 312.2734375 656.61328125 293.1953125 742.465820312 c 0
 288.956054688 760.483398438 293.1953125 775.321289062 304.854492188 786.98046875 c 0
262.458007812 285.651367188 m 0
 239.141601562 312.1484375 190.384765625 313.20703125 166.0078125 288.831054688 c 0
 139.508789062 262.333007812 108.772460938 190.260742188 108.772460938 152.104492188 c 0
 108.772460938 131.966796875 121.4921875 102.2890625 139.508789062 75.7919921875 c 0
 196.74609375 -2.6396484375 271.997070312 6.8984375 322.872070312 100.168945312 c 0
 367.38671875 181.78125 361.028320312 264.452148438 310.153320312 264.452148438 c 0
 294.25390625 264.452148438 273.055664062 273.9921875 262.458007812 285.651367188 c 0
EndSplineSet
EndChar

StartChar: e
Encoding: 101 101 4
Width: 518
Flags: HW
LayerCount: 2
Fore
SplineSet
154.73828125 518.776367188 m 0
 181.296875 530.580078125 208.83984375 535.498046875 235.3984375 533.53125 c 0
 315.075195312 525.662109375 426.227539062 425.328125 426.227539062 359.423828125 c 0
 426.227539062 323.028320312 393.766601562 275.813476562 340.650390625 237.450195312 c 0
 287.532226562 199.086914062 238.348632812 182.364257812 175.393554688 180.3984375 c 0
 147.852539062 180.3984375 131.129882812 175.48046875 131.129882812 167.610351562 c 0
 131.129882812 145.96875 176.377929688 113.509765625 235.3984375 92.8505859375 c 0
 302.287109375 69.2451171875 393.766601562 72.1962890625 445.900390625 98.7548828125 c 0
 483.279296875 118.426757812 507.87109375 103.672851562 502.953125 65.310546875 c 0
 500.986328125 46.62109375 488.19921875 33.8330078125 455.737304688 17.1103515625 c 0
 416.390625 -3.546875 402.620117188 -5.5126953125 327.861328125 -0.595703125 c 0
 196.051757812 7.2744140625 90.7998046875 56.45703125 37.68359375 133.182617188 c 0
 11.1240234375 172.528320312 8.1728515625 182.364257812 9.1572265625 255.155273438 c 0
 9.1572265625 319.09375 14.07421875 343.684570312 31.78125 379.09765625 c 0
 68.17578125 448.936523438 111.45703125 498.119140625 154.73828125 518.776367188 c 0
295.401367188 426.3125 m 0
 282.614257812 438.1171875 259.005859375 450.903320312 241.299804688 453.854492188 c 0
 213.7578125 459.755859375 204.905273438 455.822265625 173.427734375 422.37890625 c 0
 133.09765625 379.09765625 111.45703125 333.848632812 111.45703125 290.568359375 c 0
 111.45703125 262.040039062 112.440429688 261.05859375 159.65625 261.05859375 c 0
 219.658203125 261.05859375 255.0703125 273.844726562 291.465820312 308.2734375 c 0
 325.895507812 341.71875 327.861328125 395.819335938 295.401367188 426.3125 c 0
EndSplineSet
EndChar

StartChar: f
Encoding: 102 102 5
Width: 439
Flags: HW
LayerCount: 2
Fore
SplineSet
139.734375 970.266601562 m 0
 161.84375 994.385742188 205.053710938 991.37109375 230.1796875 965.2421875 c 0
 256.30859375 936.099609375 357.806640625 627.58203125 378.911132812 514.020507812 c 0
 399.009765625 398.453125 399.009765625 260.77734375 377.90625 239.670898438 c 0
 360.822265625 221.58203125 318.614257812 218.567382812 308.564453125 233.643554688 c 0
 305.548828125 238.66796875 301.530273438 317.051757812 299.518554688 406.4921875 c 0
 297.510742188 517.037109375 290.474609375 589.39453125 279.422851562 630.595703125 c 0
 249.2734375 743.149414062 201.036132812 876.80859375 191.991210938 876.80859375 c 0
 176.91796875 876.80859375 163.853515625 833.592773438 146.76953125 727.0703125 c 0
 123.655273438 586.377929688 136.719726562 345.19140625 178.927734375 140.181640625 c 0
 184.956054688 110.032226562 207.065429688 105.008789062 238.21875 127.1171875 c 0
 249.2734375 134.151367188 288.466796875 157.266601562 325.6484375 176.359375 c 0
 384.94140625 208.518554688 397.001953125 211.534179688 419.110351562 201.482421875 c 0
 451.268554688 187.416015625 452.2734375 154.250976562 422.125 126.112304688 c 0
 409.057617188 114.052734375 359.815429688 85.9150390625 310.575195312 62.802734375 c 0
 262.336914062 38.68359375 220.12890625 15.568359375 217.114257812 11.55078125 c 0
 214.098632812 6.5234375 221.134765625 -22.619140625 233.194335938 -53.7724609375 c 0
 254.297851562 -112.05859375 253.293945312 -142.208984375 228.169921875 -152.2578125 c 0
 196.010742188 -164.318359375 166.868164062 -138.186523438 153.802734375 -86.935546875 c 0
 139.734375 -33.6748046875 137.72265625 -32.6689453125 83.455078125 -48.7470703125 c 0
 57.328125 -55.7822265625 39.240234375 -55.7822265625 19.140625 -48.7470703125 c 0
 -24.0712890625 -31.6630859375 -13.0185546875 -0.5107421875 45.2685546875 30.6416015625 c 0
 72.40234375 44.7119140625 96.521484375 62.802734375 99.5361328125 70.83984375 c 0
 103.556640625 78.880859375 98.53125 127.1171875 89.486328125 177.36328125 c 0
 35.21875 478.849609375 40.244140625 758.223632812 102.551757812 901.932617188 c 0
 114.610351562 930.068359375 131.6953125 960.21875 139.734375 970.266601562 c 0
EndSplineSet
EndChar

StartChar: g
Encoding: 103 103 6
Width: 463
Flags: HW
LayerCount: 2
Fore
SplineSet
182.326171875 567.830078125 m 0
 227.177734375 586.892578125 224.934570312 588.014648438 268.665039062 557.741210938 c 0
 340.420898438 509.524414062 361.725585938 448.979492188 429 107 c 0
 491.790039062 -214.794921875 506.366210938 -416.618164062 480.579101562 -612.8359375 c 0
 453.666992188 -812.416015625 392 -915.572265625 283.239257812 -948.086914062 c 0
 174.477539062 -979.482421875 56.7490234375 -937.99609375 -66.5888671875 -823.629882812 c 0
 -165.256835938 -732.810546875 -192.166992188 -672.26171875 -192.166992188 -544.440429688 c 0
 -192.166992188 -389.708984375 -152.922851562 -263.0078125 -81.162109375 -186.765625 c 0
 -39.6787109375 -143.03515625 -25.1015625 -137.427734375 -4.919921875 -157.612304688 c 0
 5.1708984375 -167.702148438 0.6865234375 -186.765625 -23.98046875 -236.09765625 c 0
 -108.07421875 -400.921875 -123.770507812 -575.8359375 -65.4658203125 -691.323242188 c 0
 -13.890625 -792.235351562 120.658203125 -885.298828125 215.96484375 -885.298828125 c 0
 251.841796875 -885.298828125 266.420898438 -877.44921875 300.059570312 -842.690429688 c 0
 322.482421875 -819.146484375 347.149414062 -778.780273438 354.999023438 -754.114257812 c 0
 399.848632812 -606.109375 400.967773438 -259.64453125 358.361328125 -72.3974609375 c 0
 325.846679688 67.7578125 329.209960938 62.15234375 294.451171875 35.2392578125 c 0
 258.572265625 7.2109375 191.297851562 3.8466796875 144.205078125 28.515625 c 0
 53.384765625 75.6083984375 0.6865234375 238.186523438 36.5673828125 361.5234375 c 0
 57.8701171875 437.765625 136.357421875 547.650390625 182.326171875 567.830078125 c 0
249.603515625 463.556640625 m 0
 238.389648438 479.251953125 224.934570312 493.828125 221.5703125 493.828125 c 0
 206.995117188 493.828125 145.329101562 386.189453125 132.993164062 337.9765625 c 0
 109.448242188 249.3984375 152.053710938 105.880859375 199.145507812 114.850585938 c 0
 221.5703125 119.333984375 243.995117188 181.001953125 243.995117188 242.670898438 c 0
 245.118164062 270.701171875 251.841796875 295.370117188 263.056640625 304.33984375 c 0
 287.724609375 324.520507812 279.876953125 423.19140625 249.603515625 463.556640625 c 0
EndSplineSet
EndChar

StartChar: s
Encoding: 115 115 7
Width: 509
Flags: HW
LayerCount: 2
Fore
SplineSet
158.330078125 501.192382812 m 0
 248.731445312 546.979492188 322.696289062 549.328125 380.224609375 510.583984375 c 0
 427.186523438 478.883789062 435.403320312 450.708007812 407.227539062 419.008789062 c 0
 377.875976562 386.135742188 334.435546875 389.657226562 320.346679688 426.051757812 c 0
 307.43359375 460.099609375 267.515625 464.796875 231.12109375 438.966796875 c 0
 198.248046875 413.138671875 218.20703125 390.831054688 318 338 c 0
 423.6640625 283.994140625 464.754882812 245.25 484.713867188 185.373046875 c 0
 497.627929688 145.456054688 496.454101562 134.889648438 477.668945312 97.3203125 c 0
 423.6640625 -5.9951171875 260.471679688 -35.3466796875 123.107421875 32.748046875 c 0
 51.4921875 69.14453125 -20.1240234375 136.064453125 -20.1240234375 167.763671875 c 0
 -20.1240234375 193.591796875 39.7509765625 233.508789062 72.623046875 229.987304688 c 0
 97.279296875 227.638671875 104.323242188 218.24609375 109.020507812 185.373046875 c 0
 119.5859375 125.498046875 126.630859375 118.452148438 195.8984375 96.146484375 c 0
 255.775390625 77.361328125 260.471679688 77.361328125 303.911132812 98.4951171875 c 0
 343.828125 117.28125 349.698242188 126.670898438 353.220703125 164.240234375 c 0
 356.7421875 212.376953125 347.3515625 221.76953125 193.55078125 302.778320312 c 0
 114.890625 345.043945312 66.7548828125 402.572265625 79.6689453125 442.489257812 c 0
 83.1904296875 455.403320312 118.411132812 481.232421875 158.330078125 501.192382812 c 0
EndSplineSet
EndChar

StartChar: v
Encoding: 118 118 8
Width: 434
Flags: HW
LayerCount: 2
Fore
SplineSet
286.799804688 499.044921875 m 0
 306.569335938 539.8203125 379.46875 533.641601562 404.180664062 489.16015625 c 0
 420.243164062 461.978515625 419.0078125 452.092773438 396.766601562 402.669921875 c 0
 358.463867188 321.120117188 322.630859375 196.325195312 313.982421875 117.247070312 c 0
 305.33203125 33.2265625 267.029296875 -13.7265625 218.841796875 1.1005859375 c 0
 153.354492188 22.1064453125 91.5751953125 96.2412109375 70.5712890625 180.26171875 c 0
 40.916015625 295.172851562 12.4970703125 444.6796875 18.6748046875 454.563476562 c 0
 28.5615234375 470.626953125 92.810546875 466.919921875 106.40234375 449.622070312 c 0
 113.815429688 440.97265625 128.643554688 377.95703125 141 310 c 0
 173.124023438 132.073242188 200.30859375 82.6513671875 215.134765625 177.791992188 c 0
 220.077148438 202.502929688 232.432617188 256.870117188 242.318359375 297.643554688 c 0
 253.438476562 338.41796875 264.55859375 394.020507812 267.029296875 421.203125 c 0
 269.500976562 448.385742188 278.150390625 482.982421875 286.799804688 499.044921875 c 0
EndSplineSet
EndChar

StartChar: h
Encoding: 104 104 9
Width: 538
Flags: HW
LayerCount: 2
Fore
SplineSet
28.25 807.27734375 m 0
 68.5263671875 818.163085938 93.5625 813.80859375 112.067382812 793.126953125 c 0
 129.484375 773.533203125 130.573242188 763.736328125 119.6875 702.77734375 c 0
 101.182617188 598.27734375 116.421875 229.26171875 140.370117188 194.428710938 c 0
 150.166992188 180.27734375 152.34375 180.27734375 157.786132812 194.428710938 c 0
 177.379882812 244.501953125 245.958007812 363.15234375 260.109375 371.861328125 c 0
 269.90625 377.303710938 294.942382812 379.48046875 317.801757812 375.126953125 c 0
 354.8125 367.506835938 360.254882812 362.064453125 395.088867188 286.955078125 c 0
 442.984375 181.366210938 489.791992188 114.96484375 535.510742188 86.6630859375 c 0
 595.379882812 49.65234375 595.379882812 3.93359375 536.598632812 -8.0400390625 c 0
 511.5625 -12.39453125 491.96875 -5.86328125 452.78125 20.26171875 c 0
 423.390625 39.85546875 400.53125 58.361328125 400.53125 62.71484375 c 0
 400.53125 65.98046875 388.557617188 82.30859375 373.317382812 98.63671875 c 0
 358.078125 114.96484375 336.307617188 147.62109375 323.245117188 171.569335938 c 0
 311.270507812 196.60546875 297.120117188 216.19921875 292.765625 216.19921875 c 0
 281.879882812 216.19921875 255.754882812 157.41796875 217.65625 47.4755859375 c 0
 190.442382812 -28.72265625 182.823242188 -40.6962890625 154.520507812 -48.31640625 c 0
 113.15625 -60.2900390625 65.2607421875 -41.78515625 53.2861328125 -10.216796875 c 0
 29.3388671875 50.7412109375 -0.0517578125 491.600585938 6.4794921875 708.220703125 c 0
 8.65625 787.68359375 11.921875 802.923828125 28.25 807.27734375 c 0
EndSplineSet
EndChar

StartChar: i
Encoding: 105 105 10
Width: 200
Flags: HW
LayerCount: 2
Fore
SplineSet
-39.419921875 637.739257812 m 0
 -13.4990234375 648.541015625 29.7001953125 642.060546875 51.30078125 625.860351562 c 0
 71.8203125 609.66015625 79.3798828125 574.020507812 65.3408203125 557.8203125 c 0
 46.98046875 536.219726562 -19.9794921875 537.299804688 -44.8203125 559.979492188 c 0
 -72.900390625 584.8203125 -69.66015625 626.939453125 -39.419921875 637.739257812 c 0
40.5 358.01953125 m 0
 68.580078125 380.700195312 110.700195312 375.299804688 137.700195312 345.060546875 c 0
 151.740234375 328.860351562 157.139648438 302.939453125 159.299804688 235.979492188 c 0
 160.379882812 187.37890625 166.860351562 119.33984375 174.420898438 85.8603515625 c 0
 184.140625 36.1796875 184.140625 19.98046875 173.33984375 7.0205078125 c 0
 156.060546875 -13.5 93.4208984375 -14.580078125 77.220703125 5.939453125 c 0
 70.740234375 13.5 59.939453125 72.900390625 53.4599609375 137.700195312 c 0
 46.98046875 202.5 36.1796875 273.780273438 29.7001953125 297.540039062 c 0
 18.900390625 335.33984375 19.98046875 340.740234375 40.5 358.01953125 c 0
EndSplineSet
EndChar

StartChar: j
Encoding: 106 106 11
Width: 331
Flags: HW
LayerCount: 2
Fore
SplineSet
20.748046875 502.001953125 m 0
 67.1435546875 522.622070312 101.940429688 516.177734375 138.028320312 481.3828125 c 0
 162.516601562 458.182617188 162.516601562 456.89453125 139.317382812 431.120117188 c 0
 110.962890625 400.1875 47.8134765625 397.609375 6.5703125 425.962890625 c 0
 -33.3818359375 453.026367188 -28.2265625 481.3828125 20.748046875 502.001953125 c 0
82.6083984375 258.421875 m 0
 100.651367188 280.33203125 159.936523438 281.620117188 187 261 c 0
 257.883789062 205.579101562 509.197265625 -228.740234375 550.439453125 -366.638671875 c 0
 594.254882812 -516.138671875 562.0390625 -614.086914062 452.490234375 -665.638671875 c 0
 354.543945312 -710.75 168.958007812 -708.16796875 24.6162109375 -659.196289062 c 0
 -142.927734375 -602.48828125 -182.880859375 -557.380859375 -216.389648438 -396.282226562 c 0
 -229.278320312 -333.131835938 -229.278320312 -312.510742188 -217.677734375 -300.9140625 c 0
 -194.478515625 -277.716796875 -162.260742188 -317.665039062 -124.88671875 -413.037109375 c 0
 -75.9111328125 -538.049804688 -48.8466796875 -559.959960938 109.674804688 -592.177734375 c 0
 278.505859375 -626.977539062 399.650390625 -611.5078125 438.313476562 -552.225585938 c 0
 470.534179688 -503.25 453.77734375 -389.838867188 397.075195312 -277.716796875 c 0
 370.009765625 -224.873046875 333.922851562 -152.702148438 317.16796875 -117.90625 c 0
 274.639648438 -32.8427734375 170.249023438 120.520507812 126.4296875 160.473632812 c 0
 76.166015625 206.869140625 63.275390625 235.22265625 82.6083984375 258.421875 c 0
EndSplineSet
EndChar

StartChar: k
Encoding: 107 107 12
Width: 444
Flags: HW
LayerCount: 2
Fore
SplineSet
2.7373046875 817.29296875 m 0
 10.818359375 847.596679688 56.2724609375 850.626953125 89.60546875 823.353515625 c 0
 112.837890625 805.171875 112.837890625 802.141601562 113.848632812 525.374023438 c 0
 115.868164062 214.262695312 118.8984375 195.071289062 167.383789062 255.676757812 c 0
 183.544921875 274.869140625 222.939453125 319.313476562 255.262695312 353.657226562 c 0
 307.788085938 409.212890625 319.909179688 417.29296875 352.232421875 417.29296875 c 0
 381.525390625 417.29296875 391.625976562 412.243164062 400.716796875 393.05078125 c 0
 412.837890625 364.767578125 406.77734375 354.666992188 350.211914062 313.252929688 c 0
 309.807617188 282.950195312 231.01953125 172.848632812 231.01953125 144.56640625 c 0
 231.01953125 107.192382812 287.5859375 66.7880859375 360.3125 49.6162109375 c 0
 397.686523438 41.5361328125 438.090820312 36.4853515625 449.202148438 39.515625 c 0
 490.616210938 50.626953125 514.858398438 -4.9287109375 479.504882812 -29.171875 c 0
 444.151367188 -53.4140625 282.53515625 -23.1103515625 218.8984375 18.3037109375 c 0
 173.444335938 48.6064453125 170.4140625 48.6064453125 170.4140625 24.3642578125 c 0
 170.4140625 -32.2021484375 83.544921875 -45.3330078125 46.171875 5.171875 c 0
 34.0498046875 22.34375 26.9794921875 44.56640625 27.9892578125 63.7578125 c 0
 32.0302734375 99.111328125 32.0302734375 151.63671875 29 488 c 0
 27.9892578125 683.959960938 23.94921875 740.525390625 11.828125 763.7578125 c 0
 3.7470703125 779.919921875 -0.29296875 804.162109375 2.7373046875 817.29296875 c 0
EndSplineSet
EndChar

StartChar: l
Encoding: 108 108 13
Width: 204
Flags: HW
LayerCount: 2
Fore
SplineSet
76.19921875 809.692382812 m 0
 89.771484375 833.704101562 131.534179688 835.793945312 154.502929688 811.778320312 c 0
 175.3828125 791.943359375 172.252929688 733.477539062 143.020507812 615.499023438 c 0
 116.915039062 505.872070312 109.608398438 138.368164062 132.579101562 84.078125 c 0
 141.973632812 62.1513671875 149.284179688 31.8740234375 149.284179688 16.2158203125 c 0
 149.284179688 -34.9423828125 82.46484375 -50.60546875 30.2626953125 -9.8876953125 c 0
 10.4248046875 3.685546875 9.3798828125 17.2578125 12.51171875 185.349609375 c 0
 14.599609375 402.51171875 28.173828125 561.20703125 49.052734375 652.0390625 c 0
 58.451171875 689.625976562 65.7587890625 735.5625 65.7587890625 754.358398438 c 0
 65.7587890625 773.150390625 70.9794921875 798.208984375 76.19921875 809.692382812 c 0
EndSplineSet
EndChar

StartChar: m
Encoding: 109 109 14
Width: 725
Flags: HW
LayerCount: 2
Fore
SplineSet
230.474609375 578.514648438 m 0
 279.852539062 594.974609375 324.526367188 573.811523438 351.56640625 520.908203125 c 0
 363.323242188 496.21875 378.606445312 475.056640625 383.30859375 475.056640625 c 0
 388.012695312 475.056640625 404.470703125 496.21875 419.754882812 522.083007812 c 0
 442.092773438 557.352539062 458.55078125 570.28515625 489.118164062 576.163085938 c 0
 571.413085938 591.447265625 587.873046875 567.934570312 686.627929688 286.953125 c 0
 710.141601562 219.940429688 740.70703125 150.576171875 753.639648438 132.943359375 c 0
 780.6796875 95.3212890625 774.801757812 68.28125 734.829101562 50.6474609375 c 0
 697.208007812 34.1875 650.181640625 54.1748046875 627.84375 97.6728515625 c 0
 617.264648438 116.483398438 596.1015625 184.670898438 579.643554688 248.157226562 c 0
 547.901367188 370.423828125 516.158203125 445.665039062 497.34765625 445.665039062 c 0
 472.66015625 445.665039062 440.916015625 326.92578125 437.388671875 222.291992188 c 0
 435.038085938 164.685546875 433.861328125 112.95703125 432.686523438 109.4296875 c 0
 432.686523438 104.727539062 417.403320312 95.3212890625 397.416992188 87.091796875 c 0
 366.850585938 74.1591796875 359.795898438 76.5107421875 330.404296875 98.84765625 c 0
 299.837890625 122.361328125 297.486328125 131.767578125 297.486328125 202.305664062 c 0
 296.310546875 299.885742188 268.095703125 439.788085938 250.4609375 439.788085938 c 0
 204.611328125 439.788085938 168.1640625 134.118164062 198.732421875 7.1484375 c 0
 212.83984375 -51.634765625 211.6640625 -58.6884765625 191.677734375 -72.796875 c 0
 179.921875 -82.201171875 155.233398438 -89.255859375 136.421875 -89.255859375 c 0
 81.1669921875 -89.255859375 71.76171875 -57.5126953125 64.70703125 151.752929688 c 0
 61.181640625 269.318359375 51.775390625 364.544921875 40.01953125 404.518554688 c 0
 14.154296875 493.868164062 16.505859375 505.624023438 55.3017578125 522.083007812 c 0
 84.693359375 533.838867188 94.099609375 532.6640625 121.139648438 515.029296875 c 0
 152.881835938 495.04296875 154.056640625 495.04296875 175.219726562 523.258789062 c 0
 186.975585938 538.54296875 197.556640625 555.001953125 197.556640625 559.704101562 c 0
 197.556640625 563.231445312 211.6640625 572.63671875 230.474609375 578.514648438 c 0
EndSplineSet
EndChar

StartChar: n
Encoding: 110 110 15
Width: 511
Flags: HW
LayerCount: 2
Fore
SplineSet
193.963867188 537.43359375 m 2
 245.770507812 584.421875 302.397460938 595.265625 342.15625 565.14453125 c 0
 372.276367188 544.663085938 419.264648438 407.313476562 446.975585938 265.14453125 c 0
 460.228515625 198.879882812 480.7109375 125.385742188 495.16796875 102.494140625 c 0
 525.2890625 50.6865234375 525.2890625 19.361328125 496.373046875 2.494140625 c 0
 459.0234375 -16.783203125 427.698242188 -11.9638671875 390.348632812 19.361328125 c 0
 359.0234375 45.8671875 354.204101562 60.3251953125 339.747070312 167.5546875 c 0
 321.674804688 313.337890625 308.421875 384.421875 290.348632812 430.205078125 c 2
 275.891601562 466.349609375 l 1
 234.927734375 419.361328125 l 2
 175.891601562 351.891601562 154.204101562 272.374023438 153 129 c 0
 151.794921875 62.7353515625 146.975585938 1.2890625 142.15625 -5.939453125 c 0
 127.698242188 -28.8310546875 68.662109375 -25.216796875 38.5419921875 0.0849609375 c 0
 13.240234375 19.361328125 13.240234375 30.205078125 12.0361328125 279.602539062 c 2
 9.6259765625 538.638671875 l 1
 49.384765625 542.252929688 l 2
 77.095703125 544.663085938 96.373046875 538.638671875 116.85546875 519.361328125 c 2
 144.56640625 492.85546875 l 1
 193.963867188 537.43359375 l 2
EndSplineSet
EndChar

StartChar: o
Encoding: 111 111 16
Width: 516
Flags: HW
LayerCount: 2
Fore
SplineSet
176.98828125 525.298828125 m 0
 289.631835938 601.161132812 394.229492188 555.18359375 466.643554688 396.563476562 c 0
 493.080078125 337.942382812 496.528320312 319.551757812 491.930664062 240.241210938 c 0
 485.034179688 116.103515625 450.551757812 49.4365234375 375.838867188 11.505859375 c 0
 326.4140625 -12.6318359375 312.62109375 -14.9306640625 222.965820312 -6.884765625 c 0
 144.8046875 0.01171875 119.517578125 5.7587890625 93.080078125 28.7470703125 c 0
 22.9658203125 87.3681640625 -3.4716796875 232.1953125 34.4599609375 340.241210938 c 0
 63.1953125 420.701171875 104.575195312 475.874023438 176.98828125 525.298828125 c 0
340.20703125 417.252929688 m 0
 296.528320312 474.724609375 247.103515625 474.724609375 190.78125 417.252929688 c 0
 113.770507812 337.942382812 82.7353515625 218.40234375 118.368164062 134.494140625 c 2
 135.609375 91.9658203125 l 1
 224.115234375 96.5634765625 l 2
 326.4140625 101.161132812 347.103515625 113.8046875 367.79296875 188.517578125 c 0
 389.631835938 268.9765625 378.137695312 367.827148438 340.20703125 417.252929688 c 0
EndSplineSet
EndChar

StartChar: p
Encoding: 112 112 17
Width: 396
Flags: HW
LayerCount: 2
Fore
SplineSet
189.586914062 498.299804688 m 0
 198.05078125 501.47265625 224.5 504.645507812 246.716796875 504.645507812 c 0
 281.62890625 505.704101562 294.32421875 499.356445312 328.178710938 463.383789062 c 0
 375.787109375 413.661132812 390.599609375 367.112304688 390.599609375 269.780273438 c 0
 390.599609375 185.142578125 374.729492188 142.825195312 320.7734375 83.578125 c 0
 273.166015625 29.623046875 250.947265625 16.927734375 194.876953125 9.5224609375 c 2
 152.556640625 3.173828125 l 1
 152.556640625 -176.678710938 l 2
 153.6171875 -275.0703125 157.848632812 -374.517578125 162.080078125 -395.677734375 c 0
 170.543945312 -431.646484375 168.426757812 -435.87890625 141.979492188 -448.57421875 c 0
 118.702148438 -459.154296875 108.124023438 -458.095703125 85.90625 -445.401367188 c 0
 58.400390625 -430.588867188 56.2861328125 -423.184570312 34.06640625 -240.158203125 c 0
 4.4443359375 -9.5224609375 1.26953125 184.083984375 24.5458984375 250.735351562 c 0
 45.7041015625 308.923828125 45.7041015625 364.99609375 25.6025390625 404.140625 c 0
 4.4443359375 443.28515625 5.501953125 446.459960938 34.06640625 462.328125 c 0
 52.05078125 471.850585938 65.8046875 471.850585938 88.0224609375 463.383789062 c 0
 112.356445312 454.921875 122.935546875 455.98046875 145.15234375 471.850585938 c 0
 161.022460938 483.487304688 181.123046875 495.125 189.586914062 498.299804688 c 0
275.282226562 392.502929688 m 0
 245.657226562 429.532226562 192.76171875 405.19921875 158.90625 339.60546875 c 0
 146.209960938 315.272460938 143.03515625 149.171875 153.6171875 120.607421875 c 0
 169.485351562 79.3466796875 234.022460938 112.142578125 271.049804688 180.911132812 c 0
 294.32421875 224.287109375 297.499023438 367.112304688 275.282226562 392.502929688 c 0
EndSplineSet
EndChar

StartChar: q
Encoding: 113 113 18
Width: 393
Flags: HW
LayerCount: 2
Fore
SplineSet
182.231445312 508.807617188 m 0
 198.577148438 515.538085938 228.384765625 521.307617188 247.615234375 522.268554688 c 0
 288 522.268554688 313 496.307617188 313 454 c 0
 313 440.538085938 323.577148438 417.4609375 337.0390625 403.038085938 c 0
 350.5 388.615234375 361.077148438 375.153320312 361.077148438 373.23046875 c 0
 361.077148438 352.077148438 323.577148438 233.807617188 298.577148438 177.077148438 c 0
 248.577148438 61.6923828125 228.384765625 -9.4619140625 216.846679688 -113.307617188 c 0
 206.26953125 -204.654296875 209.154296875 -246.961914062 225.5 -246.961914062 c 0
 237.0390625 -246.961914062 363.961914062 -55.615234375 381.26953125 -11.384765625 c 0
 407.231445312 52.0771484375 478.384765625 70.345703125 491.846679688 17.4609375 c 0
 495.692382812 0.1533203125 488.961914062 -16.1923828125 463.961914062 -46.9619140625 c 0
 445.692382812 -70.0390625 401.461914062 -133.5 364.922851562 -188.307617188 c 0
 278.384765625 -320.0390625 253.384765625 -345.0390625 209.154296875 -341.192382812 c 0
 185.115234375 -339.26953125 169.731445312 -330.615234375 155.307617188 -311.384765625 c 0
 138 -287.346679688 135.115234375 -271 135.115234375 -176.76953125 c 0
 135.115234375 -117.154296875 137.0390625 -47.9228515625 139.922851562 -21.9619140625 c 0
 144.731445312 25.1533203125 143.76953125 26.115234375 114.922851562 33.8076171875 c 0
 40.884765625 53.0380859375 3.384765625 140.538085938 24.5390625 246.307617188 c 0
 45.6923828125 360.73046875 118.76953125 480.922851562 182.231445312 508.807617188 c 0
218.76953125 371.307617188 m 0
 234.154296875 421.307617188 218.76953125 433.807617188 185.115234375 399.192382812 c 0
 154.346679688 367.4609375 115.884765625 275.153320312 106.26953125 214.577148438 c 0
 95.6923828125 142.4609375 133.192382812 82.845703125 163 124.192382812 c 0
 186.077148438 154.9609375 219.731445312 278.038085938 213.961914062 306.884765625 c 0
 211.077148438 322.268554688 213 351.115234375 218.76953125 371.307617188 c 0
EndSplineSet
EndChar

StartChar: u
Encoding: 117 117 19
Width: 420
Flags: HW
LayerCount: 2
Fore
SplineSet
40.50390625 463.094726562 m 0
 60.08984375 476.805664062 54.21484375 476.805664062 88.48828125 465.0546875 c 2
 117.865234375 454.282226562 l 1
 116.88671875 310.33203125 l 2
 116.88671875 190.864257812 119.825195312 161.485351562 134.512695312 135.044921875 c 0
 158.014648438 90.0009765625 184.455078125 92.9375 209.915039062 141.900390625 c 0
 225.583984375 172.256835938 229.5 199.67578125 229.5 274.099609375 c 0
 229.5 354.3984375 232.438476562 370.06640625 249.084960938 386.712890625 c 0
 273.56640625 411.1953125 289.235351562 411.1953125 318.61328125 387.693359375 c 0
 339.176757812 371.045898438 341.134765625 363.211914062 338.198242188 278.017578125 c 0
 336.23828125 177.154296875 350.927734375 121.3359375 386.181640625 102.73046875 c 0
 396.953125 96.8544921875 412.62109375 79.228515625 420.455078125 63.5595703125 c 0
 435.143554688 36.1416015625 434.165039062 34.1826171875 410.663085938 18.5146484375 c 0
 380.305664062 -1.0703125 342.115234375 6.763671875 306.862304688 41.037109375 c 2
 280.422851562 65.51953125 l 1
 240.271484375 39.0791015625 l 2
 207.95703125 17.5361328125 192.2890625 12.6396484375 160.953125 17.5361328125 c 0
 79.6748046875 28.306640625 43.4423828125 79.228515625 22.8779296875 212.407226562 c 0
 8.1884765625 306.416015625 17.982421875 445.46875 40.50390625 463.094726562 c 0
EndSplineSet
EndChar

StartChar: t
Encoding: 116 116 20
Width: 412
Flags: HW
LayerCount: 2
Fore
SplineSet
140.188476562 551.623046875 m 4
 163.802734375 569.078125 194.606445312 567.024414062 217.194335938 546.489257812 c 4
 232.596679688 533.141601562 235.677734375 514.659179688 235.677734375 445.866210938 c 4
 235.677734375 399.662109375 238.756835938 359.619140625 241.836914062 355.51171875 c 4
 245.943359375 352.430664062 266.479492188 358.591796875 287.013671875 368.859375 c 4
 308.577148438 380.154296875 351.700195312 392.474609375 382.502929688 395.555664062 c 4
 428.70703125 400.689453125 438.975585938 399.662109375 444.109375 385.288085938 c 4
 455.403320312 355.51171875 418.439453125 319.575195312 330.138671875 276.450195312 c 6
 245.943359375 235.379882812 l 5
 251.077148438 160.427734375 l 6
 254.159179688 120.383789062 259.29296875 69.044921875 262.372070312 47.484375 c 4
 268.532226562 -4.880859375 253.131835938 -31.5771484375 215.141601562 -31.5771484375 c 4
 165.857421875 -31.5771484375 155.58984375 -11.0419921875 154.5625 88.5546875 c 4
 154.5625 137.837890625 149.4296875 181.989257812 145.321289062 186.096679688 c 4
 140.188476562 191.23046875 115.545898438 183.015625 90.9033203125 168.641601562 c 4
 36.484375 137.837890625 -0.478515625 135.78515625 -32.3076171875 162.48046875 c 4
 -68.244140625 192.2578125 -50.7890625 211.765625 53.939453125 264.129882812 c 4
 155.58984375 313.4140625 150.456054688 301.09375 133 451 c 4
 123.759765625 528.006835938 124.786132812 539.301757812 140.188476562 551.623046875 c 4
EndSplineSet
EndChar

StartChar: r
Encoding: 114 114 22
Width: 348
Flags: HW
LayerCount: 2
Fore
SplineSet
137.137695312 497.284179688 m 0
 211.744140625 538.0859375 322.494140625 542.749023438 365.627929688 507.778320312 c 0
 409.924804688 471.637695312 384.279296875 443.661132812 298.015625 435.498046875 c 0
 211.744140625 427.337890625 147.629882812 391.200195312 139.469726562 345.734375 c 0
 130.143554688 295.607421875 142.96484375 204.676757812 173.275390625 117.24609375 c 0
 205.91796875 25.150390625 198.922851562 5.33203125 134.805664062 5.33203125 c 0
 83.51171875 5.33203125 41.544921875 46.1337890625 32.220703125 105.586914062 c 0
 27.556640625 131.233398438 17.064453125 174.3671875 8.9033203125 203.51171875 c 0
 -0.421875 232.65625 -10.9140625 288.611328125 -15.578125 328.248046875 c 2
 -22.5703125 399.359375 l 1
 27.556640625 432.000976562 l 2
 55.533203125 449.490234375 105.662109375 478.631835938 137.137695312 497.284179688 c 0
EndSplineSet
EndChar

StartChar: y
Encoding: 121 121 23
Width: 571
Flags: HW
LayerCount: 2
Fore
SplineSet
104.625976562 500.72265625 m 0
 138.703125 520.916992188 172.783203125 517.12890625 204.333984375 486.837890625 c 0
 240.936523438 452.759765625 240.936523438 447.711914062 198.024414062 384.602539062 c 0
 146.27734375 308.873046875 127.344726562 253.340820312 128.60546875 185.18359375 c 0
 129.8671875 111.978515625 137.44140625 98.095703125 179.091796875 98.095703125 c 0
 203.072265625 98.095703125 230.838867188 117.026367188 275.015625 164.98828125 c 0
 348.220703125 243.243164062 365.892578125 274.794921875 377.25 350.524414062 c 0
 388.609375 422.467773438 412.591796875 459.069335938 452.98046875 466.642578125 c 0
 493.369140625 474.216796875 536.282226562 431.302734375 536.282226562 383.340820312 c 0
 536.282226562 364.409179688 524.921875 324.018554688 511.038085938 294.991210938 c 0
 483.270507812 233.145507812 487.056640625 185.18359375 537.544921875 -11.7119140625 c 0
 567.8359375 -134.141601562 564.049804688 -183.3671875 514.82421875 -266.669921875 c 0
 447.930664062 -381.526367188 341.909179688 -467.3515625 190.450195312 -527.935546875 c 0
 75.5947265625 -573.372070312 -30.42578125 -567.061523438 -184.409179688 -503.955078125 c 0
 -368.68359375 -426.961914062 -430.528320312 -384.049804688 -443.150390625 -323.465820312 c 0
 -455.771484375 -255.309570312 -369.946289062 -160.647460938 -280.333984375 -145.502929688 c 0
 -219.748046875 -136.668945312 -217.225585938 -164.434570312 -272.758789062 -213.659179688 c 0
 -357.32421875 -289.38671875 -351.012695312 -325.990234375 -248.779296875 -371.428710938 c 0
 -96.056640625 -439.583984375 -74.6025390625 -447.15625 -11.4931640625 -453.467773438 c 0
 35.205078125 -458.516601562 75.5947265625 -453.467773438 136.1796875 -433.2734375 c 0
 287.638671875 -382.788085938 377.25 -303.271484375 425.211914062 -175.793945312 c 0
 449.193359375 -112.684570312 449.193359375 -111.423828125 421.42578125 5.95703125 c 0
 406.279296875 70.328125 389.872070312 123.337890625 386.084960938 123.337890625 c 0
 382.298828125 123.337890625 370.940429688 111.978515625 362.104492188 98.095703125 c 0
 353.268554688 84.2109375 322.977539062 56.4423828125 293.948242188 34.9873046875 c 0
 184.140625 -44.5283203125 52.875 0.908203125 20.0595703125 130.911132812 c 0
 2.390625 199.06640625 20.0595703125 315.184570312 57.923828125 390.915039062 c 0
 70.5458984375 416.158203125 81.90625 448.97265625 81.90625 462.858398438 c 0
 81.90625 476.741210938 92.00390625 494.41015625 104.625976562 500.72265625 c 0
EndSplineSet
EndChar

StartChar: w
Encoding: 119 119 24
Width: 591
Flags: HW
LayerCount: 2
Fore
SplineSet
432.943359375 611.549804688 m 0
 442.6640625 635.850585938 481.54296875 628.559570312 515.563476562 595.755859375 c 0
 547.154296875 565.379882812 575.099609375 454.814453125 575.099609375 356.400390625 c 0
 575.099609375 140.129882812 494.909179688 -20.25 396.494140625 -3.2412109375 c 0
 381.915039062 -0.8095703125 345.463867188 23.490234375 313.874023438 50.2197265625 c 2
 257.983398438 100.034179688 l 1
 217.887695312 55.0810546875 l 2
 186.299804688 21.060546875 168.073242188 11.33984375 135.26953125 11.33984375 c 0
 76.9482421875 11.33984375 57.5078125 30.7802734375 34.4228515625 112.184570312 c 0
 12.5546875 186.30078125 10.123046875 470.610351562 30.7783203125 513.134765625 c 0
 56.2939453125 564.165039062 160.783203125 511.920898438 143.7734375 457.244140625 c 0
 113.3984375 360.044921875 107.32421875 170.50390625 135.26953125 142.560546875 c 0
 141.344726562 136.484375 154.708007812 149.850585938 168.073242188 174.149414062 c 0
 211.815429688 255.555664062 283.499023438 264.060546875 328.453125 193.590820312 c 0
 373.409179688 120.690429688 392.84765625 104.895507812 411.073242188 120.690429688 c 0
 465.749023438 165.645507812 486.405273438 419.579101562 445.09375 535.00390625 c 0
 434.159179688 566.595703125 429.299804688 600.615234375 432.943359375 611.549804688 c 0
EndSplineSet
EndChar

StartChar: x
Encoding: 120 120 25
Width: 541
Flags: HW
LayerCount: 2
Fore
SplineSet
43.41015625 508.641601562 m 0
 48.5263671875 522.709960938 67.7109375 529.104492188 99.6845703125 529.104492188 c 0
 154.6796875 529.104492188 177.700195312 503.525390625 202 414 c 0
 219.905273438 350.05078125 241.647460938 311.68359375 260.83203125 311.68359375 c 0
 272.341796875 311.68359375 384.888671875 426.788085938 451.39453125 507.362304688 c 0
 473.135742188 531.662109375 535.8046875 536.778320312 574.173828125 516.314453125 c 0
 611.262695312 495.8515625 607.42578125 416.557617188 569.057617188 402.48828125 c 0
 491.041992188 373.073242188 333.731445312 236.224609375 322.220703125 187.625976562 c 0
 317.104492188 169.720703125 324.778320312 141.583984375 342.68359375 113.446289062 c 0
 373.379882812 63.568359375 372.098632812 20.083984375 340.125976562 -0.3798828125 c 0
 310.709960938 -18.28515625 256.995117188 11.130859375 232.694335938 58.451171875 c 2
 213.510742188 95.541015625 l 1
 152.12109375 43.1044921875 l 2
 90.7314453125 -9.33203125 53.6416015625 -18.28515625 8.8798828125 4.736328125 c 0
 -30.7685546875 26.478515625 -19.2578125 50.77734375 58.7568359375 113.446289062 c 0
 168.747070312 199.135742188 172.584960938 210.646484375 126.541992188 321.915039062 c 0
 104.799804688 373.073242188 76.662109375 431.904296875 61.3154296875 451.088867188 c 0
 47.2470703125 471.551757812 39.5732421875 497.131835938 43.41015625 508.641601562 c 0
EndSplineSet
EndChar

StartChar: z
Encoding: 122 122 26
Width: 577
Flags: HW
LayerCount: 2
Fore
SplineSet
26.357421875 489.213867188 m 0
 40.5 503.357421875 345.213867188 499.5 388.928710938 484.071289062 c 0
 428.786132812 469.928710938 451.928710938 427.5 437.786132812 390.213867188 c 0
 433.928710938 381.213867188 388.928710938 343.928710938 337.5 310.5 c 0
 221.786132812 233.357421875 143.357421875 157.5 148.5 127.928710938 c 0
 154.928710938 91.9287109375 350.357421875 90.6435546875 417.213867188 125.357421875 c 0
 477.643554688 156.213867188 507.213867188 157.5 556.071289062 131.786132812 c 0
 601.071289062 109.928710938 613.928710938 57.2138671875 584.357421875 21.2138671875 c 0
 565.071289062 -1.9287109375 545.786132812 -4.5 345.213867188 -7.0712890625 c 0
 145.928710938 -9.642578125 122.786132812 -7.0712890625 75.2138671875 17.357421875 c 0
 35.357421875 37.9287109375 21.2138671875 54.6435546875 12.2138671875 91.9287109375 c 0
 -4.5 157.5 22.5 207.643554688 125.357421875 300.213867188 c 0
 171.643554688 341.357421875 210.213867188 381.213867188 210.213867188 387.643554688 c 0
 210.213867188 394.071289062 175.5 395.357421875 134.357421875 390.213867188 c 0
 73.9287109375 383.786132812 54.6435546875 385.071289062 37.9287109375 401.786132812 c 0
 17.357421875 423.643554688 9.6435546875 473.786132812 26.357421875 489.213867188 c 0
EndSplineSet
EndChar
